HIERARCHY
ROOT Hips
{
	OFFSET 51.796200 -36.281315 84.598389
	CHANNELS 6 Xposition Yposition Zposition Xrotation Yrotation Zrotation
	JOINT spine
	{
		OFFSET 0.000000 -0.342407 5.954384
		CHANNELS 3 Xrotation Yrotation Zrotation
		JOINT spine1
		{
			OFFSET 0.000000 0.000000 8.856018
			CHANNELS 3 Xrotation Yrotation Zrotation
			JOINT spine2
			{
				OFFSET 0.000000 -0.000004 8.485672
				CHANNELS 3 Xrotation Yrotation Zrotation
				JOINT Neck
				{
					OFFSET 0.000000 -1.038704 21.786308
					CHANNELS 3 Xrotation Yrotation Zrotation
					JOINT Head
					{
						OFFSET 0.000000 0.000000 6.582199
						CHANNELS 3 Xrotation Yrotation Zrotation
						End Site
						{
							OFFSET 0.000000 5.254356 15.932602
						}
					}
				}
				JOINT RightShoulder
				{
					OFFSET -3.573071 0.497524 9.163864
					CHANNELS 3 Xrotation Yrotation Zrotation
					JOINT RightArm
					{
						OFFSET 0.000000 -0.000004 12.019203
						CHANNELS 3 Xrotation Yrotation Zrotation
						JOINT RightArmRoll
						{
							OFFSET 0.000000 0.000000 6.067535
							CHANNELS 3 Xrotation Yrotation Zrotation
							JOINT RightForeArm
							{
								OFFSET 0.000000 -0.000004 17.672592
								CHANNELS 3 Xrotation Yrotation Zrotation
								JOINT RightForeArmRoll
								{
									OFFSET 0.000000 0.000000 6.808716
									CHANNELS 3 Xrotation Yrotation Zrotation
									JOINT RightHand
									{
										OFFSET 0.000000 0.000000 13.663605
										CHANNELS 3 Xrotation Yrotation Zrotation
										End Site
										{
											OFFSET 0.000000 0.000000 0.100006
										}
									}
								}
							}
						}
					}
				}
				JOINT LeftShoulder
				{
					OFFSET 3.573071 0.497524 9.163864
					CHANNELS 3 Xrotation Yrotation Zrotation
					JOINT LeftArm
					{
						OFFSET 0.000000 -0.000004 12.019203
						CHANNELS 3 Xrotation Yrotation Zrotation
						JOINT LeftArmRoll
						{
							OFFSET 0.000000 0.000000 6.067551
							CHANNELS 3 Xrotation Yrotation Zrotation
							JOINT LeftForeArm
							{
								OFFSET 0.000000 -0.000004 17.672607
								CHANNELS 3 Xrotation Yrotation Zrotation
								JOINT LeftForeArmRoll
								{
									OFFSET 0.000000 0.000000 6.808716
									CHANNELS 3 Xrotation Yrotation Zrotation
									JOINT LeftHand
									{
										OFFSET 0.000000 0.000000 13.663605
										CHANNELS 3 Xrotation Yrotation Zrotation
										End Site
										{
											OFFSET 0.000000 0.000000 0.100006
										}
									}
								}
							}
						}
					}
				}
			}
		}
	}
	JOINT RightUpLeg
	{
		OFFSET -5.277740 0.811859 -0.967796
		CHANNELS 3 Xrotation Yrotation Zrotation
		JOINT RightUpLegRoll
		{
			OFFSET 0.000000 0.000000 16.021400
			CHANNELS 3 Xrotation Yrotation Zrotation
			JOINT RightLeg
			{
				OFFSET 0.000000 0.000004 -19.840096
				CHANNELS 3 Xrotation Yrotation Zrotation
				JOINT RightLegRoll
				{
					OFFSET 0.000000 -0.000004 19.904999
					CHANNELS 3 Xrotation Yrotation Zrotation
					JOINT RightFoot
					{
						OFFSET 0.000000 -0.000004 16.567497
						CHANNELS 3 Xrotation Yrotation Zrotation
						JOINT RightToeBase
						{
							OFFSET 0.000000 -0.000004 13.849609
							CHANNELS 3 Xrotation Yrotation Zrotation
							End Site
							{
								OFFSET 0.005871 0.773117 6.707275
							}
						}
					}
				}
			}
		}
	}
	JOINT LeftUpLeg
	{
		OFFSET 5.277740 0.811859 -0.967796
		CHANNELS 3 Xrotation Yrotation Zrotation
		JOINT LeftUpLegRoll
		{
			OFFSET 0.000000 0.000000 16.021500
			CHANNELS 3 Xrotation Yrotation Zrotation
			JOINT LeftLeg
			{
				OFFSET 0.000000 -0.000004 19.839996
				CHANNELS 3 Xrotation Yrotation Zrotation
				JOINT LeftLegRoll
				{
					OFFSET 0.000000 -0.000004 20.089012
					CHANNELS 3 Xrotation Yrotation Zrotation
					JOINT LeftFoot
					{
						OFFSET 0.000000 -0.000004 16.383499
						CHANNELS 3 Xrotation Yrotation Zrotation
						JOINT LeftToeBase
						{
							OFFSET 0.000000 0.000000 13.849594
							CHANNELS 3 Xrotation Yrotation Zrotation
							End Site
							{
								OFFSET -0.026310 0.773113 6.707275
							}
						}
					}
				}
			}
		}
	}
}
MOTION
Frames: 13
Frame Time: 0.041667
49.524300 4.532417 58.968185 29.339931 7.108271 6.025459 0.839525 -0.911203 0.133663 5.678561 -1.819206 0.271307 7.323959 -1.815873 0.294165 23.505449 4.948594 -4.352837 2.328371 -6.732386 -3.818833 181.132013 -119.155450 181.144827 139.529386 -60.281009 124.122815 0.000000 0.000001 -0.000000 27.612691 3.583589 -3.082122 0.000008 0.000007 -3.000004 -5.000143 -7.999938 0.000022 -9.479937 61.202839 11.279283 -55.007728 141.672699 72.326806 0.000011 0.000013 0.000011 -0.028003 -3.649550 1.990768 -0.000003 -0.000001 3.011609 -5.000165 7.999930 0.000006 -103.555640 -180.244485 -1.995855 179.999991 0.000005 -0.504995 109.494742 0.266318 -3.206755 0.000001 0.000000 1.423752 71.155825 6.969725 1.757185 25.456962 -7.355622 0.000013 -104.004117 186.634400 4.846366 0.000025 -0.000005 -0.586522 -69.580660 -4.812482 -0.390065 0.000000 0.000002 -1.276420 65.297018 -7.250354 -1.518180 25.456860 7.355620 0.000005 
49.533298 4.481960 59.018585 29.496169 7.110571 6.024214 0.839207 -0.911334 0.133573 5.677512 -1.819557 0.271416 7.322905 -1.816214 0.294192 23.488279 4.935392 -4.368972 2.256527 -6.704394 -3.842324 181.089652 -119.230624 181.105280 139.579997 -60.193597 124.111941 0.000000 0.000001 -0.000003 27.493941 3.585075 -3.077576 0.000008 0.000007 -2.999999 -5.000144 -7.999938 0.000019 -9.456889 61.111991 11.246827 -54.899575 141.724513 72.291118 0.000011 0.000014 0.000013 -0.028004 -3.649560 1.990769 -0.000003 -0.000001 3.011610 -5.000165 7.999930 0.000005 -103.638415 -180.252025 -2.019586 179.999991 0.000005 -0.501990 109.519679 0.263305 -3.204290 0.000002 0.000000 1.422250 71.158673 6.969304 1.758038 25.456959 -7.355620 0.000013 -104.031083 186.637474 4.837698 0.000027 -0.000004 -0.583337 -69.476097 -4.793459 -0.377381 0.000001 0.000001 -1.272100 65.306977 -7.248544 -1.521721 25.456858 7.355623 0.000003 
49.534401 4.430847 59.062187 29.651217 7.113108 6.022341 0.838925 -0.911689 0.133484 5.676642 -1.820266 0.271558 7.322048 -1.816922 0.294266 23.470721 4.927754 -4.384599 2.187044 -6.682851 -3.864556 181.051922 -119.304226 181.070910 139.626183 -60.107038 124.099292 0.000000 0.000001 -0.000001 27.372089 3.586580 -3.072888 0.000008 0.000007 -2.999998 -5.000144 -7.999939 0.000023 -9.435218 61.025971 11.216229 -54.796446 141.773758 72.257698 0.000011 0.000013 0.000010 -0.028005 -3.649560 1.990764 -0.000003 -0.000001 3.011612 -5.000164 7.999930 0.000004 -103.714879 -180.260522 -2.041289 179.999991 0.000005 -0.498985 109.550531 0.260016 -3.203793 0.000002 0.000001 1.420671 71.161835 6.968879 1.758770 25.456959 -7.355620 0.000012 -104.056539 186.641900 4.830953 0.000026 -0.000005 -0.580174 -69.372428 -4.776152 -0.365952 0.000001 0.000001 -1.267880 65.317044 -7.246788 -1.525267 25.456858 7.355621 0.000005 
49.533398 4.382488 59.107990 29.805077 7.115899 6.019822 0.838652 -0.912309 0.133391 5.675941 -1.821373 0.271736 7.321346 -1.818026 0.294387 23.452711 4.926813 -4.399576 2.120369 -6.669142 -3.885310 181.019233 -119.376475 181.042251 139.668025 -60.021346 124.084935 -0.000000 -0.000000 -0.000000 27.246924 3.588082 -3.068064 0.000008 0.000007 -3.000004 -5.000143 -7.999938 0.000018 -9.415125 60.945491 11.187819 -54.698525 141.820559 72.225965 0.000011 0.000014 0.000013 -0.028006 -3.649560 1.990769 -0.000003 -0.000001 3.011608 -5.000164 7.999930 0.000004 -103.784212 -180.270071 -2.063627 179.999991 0.000006 -0.495994 109.588275 0.256820 -3.202321 0.000002 0.000000 1.419020 71.165209 6.968451 1.759587 25.456964 -7.355619 0.000013 -104.080608 186.648074 4.826269 0.000025 -0.000005 -0.577034 -69.269996 -4.760886 -0.355736 0.000000 0.000001 -1.263780 65.327249 -7.245133 -1.528527 25.456856 7.355623 0.000004 
49.530396 4.304188 59.143486 29.957654 7.118975 6.016557 0.838353 -0.913234 0.133298 5.675360 -1.822958 0.271953 7.320761 -1.819615 0.294563 23.434287 4.933738 -4.413804 2.056968 -6.664639 -3.904354 180.992035 -119.447673 181.019875 139.705837 -59.936638 124.069075 -0.000000 0.000001 0.000001 27.118354 3.589578 -3.063091 0.000008 0.000007 -3.000000 -5.000143 -7.999938 0.000017 -9.396975 60.871534 11.162029 -54.605925 141.865010 72.195270 0.000011 0.000014 0.000010 -0.028007 -3.649571 1.990766 -0.000003 -0.000001 3.011609 -5.000163 7.999930 0.000002 -103.845513 -180.280849 -2.085267 179.999991 0.000006 -0.492987 109.633921 0.253691 -3.200888 0.000002 0.000000 1.417300 71.168905 6.968018 1.760483 25.456962 -7.355622 0.000014 -104.103421 186.656489 4.823973 0.000025 -0.000005 -0.573919 -69.169421 -4.748141 -0.347262 0.000000 0.000002 -1.259830 65.337487 -7.243644 -1.531421 25.456860 7.355621 0.000005 
49.552395 4.257328 59.197090 30.109048 7.122349 6.012421 0.838006 -0.914500 0.133205 5.674840 -1.825078 0.272210 7.320236 -1.821729 0.294800 23.415294 4.949685 -4.427130 1.997281 -6.670721 -3.921480 180.970780 -119.517929 181.004330 139.741162 -59.852258 124.053324 -0.000000 0.000001 0.000001 26.985973 3.591067 -3.057948 0.000008 0.000007 -3.000000 -5.000143 -7.999938 0.000018 -9.380964 60.804776 11.139169 -54.520250 141.906100 72.167171 0.000011 0.000013 0.000013 -0.028009 -3.649570 1.990765 -0.000003 -0.000001 3.011612 -5.000164 7.999930 0.000005 -103.897771 -180.292965 -2.106845 179.999991 0.000006 -0.490993 109.688446 0.250998 -3.198550 0.000002 0.000000 1.415510 71.172914 6.967581 1.761460 25.456960 -7.355621 0.000013 -104.125127 186.667554 4.825118 0.000026 -0.000004 -0.570830 -69.071087 -4.738301 -0.340666 0.000001 0.000002 -1.256050 65.347862 -7.242208 -1.534118 25.456860 7.355620 0.000004 
49.539700 4.200020 59.247688 30.259049 7.125924 6.007001 0.837666 -0.916149 0.133111 5.674564 -1.827735 0.272522 7.319985 -1.824380 0.295107 23.397452 4.974713 -4.439388 1.939403 -6.686860 -3.936657 180.956054 -119.588430 180.996461 139.773797 -59.768178 124.037082 0.000002 0.000000 0.000001 26.849489 3.592572 -3.052644 0.000008 0.000007 -3.000002 -5.000144 -7.999939 0.000019 -9.367371 60.745093 11.119558 -54.440313 141.944062 72.140369 0.000011 0.000014 0.000013 -0.028010 -3.649570 1.990766 -0.000003 -0.000001 3.011611 -5.000164 7.999929 0.000003 -103.940302 -180.306366 -2.127029 179.999991 0.000006 -0.487988 109.752793 0.248060 -3.197187 0.000002 0.000000 1.413590 71.177470 6.967173 1.762307 25.456959 -7.355620 0.000013 -104.144245 186.680558 4.829673 0.000025 -0.000004 -0.567761 -68.973538 -4.731027 -0.335545 0.000000 0.000001 -1.252390 65.358374 -7.240912 -1.536537 25.456860 7.355621 0.000004 
49.541798 4.144970 59.291092 30.407446 7.129611 5.999785 0.837417 -0.918154 0.133015 5.674729 -1.830860 0.272898 7.320134 -1.827493 0.295486 23.381915 5.007522 -4.450621 1.881467 -6.711112 -3.950150 180.947762 -119.659573 180.996161 139.802361 -59.685027 124.018381 -0.000001 0.000001 0.000001 26.708789 3.594100 -3.047167 0.000008 0.000007 -2.999995 -5.000144 -7.999938 0.000016 -9.355983 60.691319 11.102880 -54.364976 141.979129 72.114606 0.000011 0.000013 0.000012 -0.028012 -3.649571 1.990765 -0.000003 -0.000001 3.011610 -5.000163 7.999929 0.000001 -103.973402 -180.320737 -2.145723 179.999991 0.000006 -0.484997 109.826143 0.244208 -3.195668 0.000002 0.000000 1.411519 71.182544 6.966724 1.763215 25.456959 -7.355620 0.000013 -104.159743 186.694465 4.836920 0.000024 -0.000004 -0.564702 -68.875211 -4.725660 -0.331744 0.000000 0.000001 -1.248760 65.369036 -7.239756 -1.538678 25.456858 7.355622 0.000004 
49.537193 4.099468 59.350899 30.554554 7.133378 5.991237 0.837258 -0.920476 0.132918 5.675264 -1.834401 0.273329 7.320676 -1.831022 0.295928 23.368155 5.047217 -4.460960 1.823858 -6.742663 -3.962210 180.945249 -119.730853 181.002595 139.828766 -59.601180 123.999762 -0.000001 0.000001 0.000002 26.564383 3.595661 -3.041571 0.000008 0.000007 -3.000002 -5.000143 -7.999938 0.000021 -9.346458 60.642845 11.088720 -54.294290 142.011326 72.090324 0.000011 0.000013 0.000014 -0.028012 -3.649581 1.990766 -0.000003 -0.000001 3.011609 -5.000166 7.999932 0.000004 -103.998154 -180.336023 -2.163569 179.999991 0.000006 -0.482989 109.907607 0.239383 -3.195011 0.000002 -0.000000 1.409309 71.188050 6.966269 1.764196 25.456959 -7.355619 0.000012 -104.172058 186.709232 4.846044 0.000024 -0.000004 -0.561656 -68.776378 -4.722068 -0.328998 0.000000 0.000001 -1.245190 65.379916 -7.238628 -1.540810 25.456856 7.355622 0.000005 
49.552391 4.037743 59.396591 30.700252 7.137247 5.981466 0.837182 -0.923070 0.132819 5.676133 -1.838318 0.273809 7.321555 -1.834936 0.296427 23.355540 5.092949 -4.470566 1.767015 -6.780733 -3.973046 180.947885 -119.801586 181.014930 139.849913 -59.518972 123.977946 -0.000001 0.000001 -0.000000 26.416368 3.597242 -3.035829 0.000008 0.000007 -2.999999 -5.000144 -7.999939 0.000019 -9.338487 60.599303 11.076682 -54.227648 142.041229 72.066972 0.000011 0.000014 0.000011 -0.028013 -3.649581 1.990765 -0.000003 -0.000001 3.011611 -5.000165 7.999930 0.000003 -104.015564 -180.352101 -2.179256 179.999991 0.000006 -0.479983 109.995982 0.233907 -3.194236 0.000002 0.000000 1.406989 71.193876 6.965809 1.765256 25.456962 -7.355621 0.000013 -104.181456 186.724763 4.858242 0.000026 -0.000004 -0.558625 -68.677279 -4.720004 -0.327058 0.000000 0.000001 -1.241670 65.390906 -7.237554 -1.542747 25.456856 7.355622 0.000004 
49.550194 3.985100 59.441696 30.844660 7.141233 5.970743 0.837197 -0.925896 0.132721 5.677306 -1.842565 0.274330 7.322728 -1.839177 0.296970 23.343437 5.143827 -4.479581 1.711352 -6.824543 -3.982874 180.954988 -119.871241 181.032347 139.868805 -59.436012 123.956623 -0.000002 0.000000 0.000000 26.265346 3.598831 -3.029972 0.000008 0.000007 -3.000000 -5.000144 -7.999939 0.000020 -9.331747 60.560091 11.066353 -54.164479 142.069451 72.043954 0.000011 0.000014 0.000013 -0.028014 -3.649581 1.990767 -0.000003 -0.000001 3.011610 -5.000163 7.999930 0.000001 -104.026554 -180.368931 -2.195421 179.999991 0.000006 -0.477988 110.090348 0.228088 -3.193404 0.000002 -0.000000 1.404569 71.200023 6.965344 1.766292 25.456962 -7.355619 0.000014 -104.188689 186.741142 4.871574 0.000024 -0.000005 -0.555610 -68.578105 -4.719413 -0.326138 0.000001 0.000001 -1.238200 65.402032 -7.236579 -1.544496 25.456858 7.355622 0.000005 
49.564899 3.923447 59.491585 30.987967 7.145328 5.959346 0.837284 -0.928908 0.132621 5.678736 -1.847098 0.274885 7.324166 -1.843695 0.297552 23.331230 5.198997 -4.488157 1.657271 -6.873291 -3.991936 180.965971 -119.939119 181.054026 139.882001 -59.354528 123.932075 0.000001 0.000001 0.000001 26.111419 3.600448 -3.024015 0.000008 0.000007 -3.000002 -5.000144 -7.999939 0.000018 -9.325959 60.524861 11.057367 -54.105282 142.095365 72.022706 0.000010 0.000014 0.000012 -0.028015 -3.649581 1.990767 -0.000003 -0.000001 3.011611 -5.000165 7.999930 0.000000 -104.032189 -180.386416 -2.209754 179.999991 0.000005 -0.475994 110.189516 0.221914 -3.193507 0.000002 -0.000000 1.402069 71.206279 6.964910 1.767230 25.456960 -7.355621 0.000013 -104.193907 186.758218 4.887322 0.000026 -0.000004 -0.552614 -68.479115 -4.720053 -0.325890 0.000000 0.000001 -1.234790 65.413261 -7.235617 -1.546242 25.456861 7.355623 0.000004 
49.565098 3.870998 59.542492 31.130076 7.149559 5.947571 0.837445 -0.932062 0.132520 5.680380 -1.851859 0.275468 7.325804 -1.848458 0.298165 23.318261 5.257583 -4.496445 1.605206 -6.926176 -4.000409 180.980192 -120.004634 181.079161 139.889419 -59.274485 123.904604 0.000001 0.000001 0.000000 25.954886 3.602075 -3.017941 0.000008 0.000007 -3.000001 -5.000143 -7.999938 0.000021 -9.320732 60.493005 11.049258 -54.049643 142.119639 72.002959 0.000011 0.000013 0.000013 -0.028015 -3.649591 1.990767 -0.000003 -0.000001 3.011609 -5.000165 7.999930 0.000003 -104.033391 -180.404489 -2.223893 179.999991 0.000005 -0.472990 110.292590 0.215724 -3.192590 0.000002 -0.000000 1.399529 71.212638 6.964438 1.768355 25.456962 -7.355619 0.000013 -104.197766 186.776031 4.904558 0.000025 -0.000004 -0.549638 -68.380671 -4.721764 -0.326257 0.000001 0.000001 -1.231440 65.424715 -7.234724 -1.547687 25.456856 7.355623 0.000004 
